<svg width="649" height="429" viewBox="0 0 649 429" fill="none" xmlns="http://www.w3.org/2000/svg">
<path d="M145.278 415.346L231.842 419.446L181.728 13.0518L64.6897 7.11121L0.727554 412.991L85.4182 419.748L94.3791 356.56L141.277 361.357L145.278 415.346ZM102.341 279.82L106.676 238.405C108.893 214.648 111.101 191.501 113.928 167.754C114.677 159.225 116.915 134.248 119.202 106.222L122.228 70.2769L132.283 239.432L134.666 280.346L102.341 279.82Z" fill="#D16603"/>
<path d="M256.181 419.843L433.123 418.693L434.359 342.826L344.701 341.365L350.029 14.4503L262.811 13.0288L256.181 419.843Z" fill="#D16603"/>
<path d="M465.376 415.186L642.251 418.068L643.553 338.169L553.896 336.708L559.224 9.79335L478.726 8.48144L465.376 415.186Z" fill="#D16603"/>
</svg>
