<svg xmlns="http://www.w3.org/2000/svg" viewBox="0 0 290.79 158.64"><defs><style>.cls-1{fill:#d06828;}</style></defs><g id="Layer_2" data-name="Layer 2"><g id="Layer_1-2" data-name="Layer 1"><path class="cls-1" d="M183.66,72l-38.58-.48V87.73h11.16v70.44l16.26.47V88.21h11.16Z"/><path class="cls-1" d="M185.83,71v86.69h16.73l-.48-46.33V71.47Z"/><path class="cls-1" d="M241.52,71.47,231,121.54,220.49,71.47H204.24v86.7h16.25V121l6.72,37.17h9.26L241.52,121v37.17h16.25V71.47Z"/><path class="cls-1" d="M290.79,87.25V71H259.9v86.69h30.89V141.43l-14.63-.71V122.47h14.63V106.21l-14.63.48V87.25Z"/><path class="cls-1" d="M30.33,85.67l18.17.86L38,1.25,13.42,0,0,85.17l17.77,1.42,1.88-13.26,9.84,1Zm-9-28.44.91-8.69c.47-5,.93-9.85,1.53-14.83.15-1.79.62-7,1.1-12.91l.64-7.54,2.11,35.49.5,8.59Z"/><path class="cls-1" d="M53.61,86.61l37.13-.24L91,70.45l-18.82-.31L73.3,1.54,55,1.24Z"/><path class="cls-1" d="M97.51,85.63l37.11.61.28-16.77-18.82-.3L117.2.56,100.31.29Z"/></g></g></svg>